<svg width="40" height="40" viewBox="0 0 40 40" fill="none" xmlns="http://www.w3.org/2000/svg">
<path opacity="0.5" fill-rule="evenodd" clip-rule="evenodd" d="M40 1.70212L19.2553 11.2766L1.70212 40L30.1596 22.1808L40 1.70212ZM24.4985 20.851C27.0165 20.851 29.0577 18.8098 29.0577 16.2917C29.0577 13.7737 27.0165 11.7325 24.4985 11.7325C21.9805 11.7325 19.9392 13.7737 19.9392 16.2917C19.9392 18.8098 21.9805 20.851 24.4985 20.851Z" fill="url(#paint0_linear)"/>
<path fill-rule="evenodd" clip-rule="evenodd" d="M38.2979 0L17.5532 9.57447L0 38.2979L28.4574 20.4787L38.2979 0ZM22.7963 19.1489C25.3144 19.1489 27.3556 17.1076 27.3556 14.5896C27.3556 12.0716 25.3144 10.0304 22.7963 10.0304C20.2783 10.0304 18.2371 12.0716 18.2371 14.5896C18.2371 17.1076 20.2783 19.1489 22.7963 19.1489Z" fill="url(#paint1_linear)"/>
<defs>
<linearGradient id="paint0_linear" x1="20.8511" y1="1.70212" x2="20.8511" y2="40" gradientUnits="userSpaceOnUse">
<stop stop-color="#4561FA"/>
<stop offset="1" stop-color="#470E74"/>
</linearGradient>
<linearGradient id="paint1_linear" x1="19.1489" y1="0" x2="19.1489" y2="38.2979" gradientUnits="userSpaceOnUse">
<stop stop-color="#4561FA"/>
<stop offset="1" stop-color="#470E74"/>
</linearGradient>
</defs>
</svg>
